<?xml version="1.0" encoding="UTF-8"?>
<svg id="Camada_1" data-name="Camada 1" xmlns="http://www.w3.org/2000/svg" viewBox="0 0 192 192">
  <defs>
    <style>
      .cls-1 {
        fill: #fff;
        font-family: Bauhaus93, 'Bauhaus 93';
        font-size: 139.05px;
      }

      .cls-2 {
        fill: #2daaca;
        opacity: .9;
      }

      .cls-2, .cls-3, .cls-4 {
        stroke-width: 0px;
      }

      .cls-3 {
        fill: #73b8cb;
        opacity: .7;
      }

      .cls-4 {
        fill: #498093;
      }
    </style>
  </defs>
  <path class="cls-4" d="M185.09,91.43l-27.4-55.52C148.56-4.71,91.56-8.49,58.9,27.25l-38.83,49.61c-37.79,39.68,1.27,95.11,40.32,93.22l76.15-4.88c36.03,2.32,61.56-55.9,48.55-73.76Z"/>
  <path class="cls-3" d="M177.32,103.33l-5.45-50.34C167.79,10.62,123.82-9.96,88.49,7.65L30.17,43.83c-32.39,17.06-45.23,79.72,1.89,102l57.66,26.36c31.08,19.74,98.11,8.79,87.61-68.86Z"/>
  <path class="cls-2" d="M162.44,142.85l22.95-38.77C208.24,52.36,154.42,2.07,113.29,8.83l-40.33,1.89C19.32,11.01-5.56,86.9,18.71,114.09l31.79,42.77c47.43,38.04,80.44,32.82,111.94-14Z"/>
  <text class="cls-1" transform="translate(53.14 138.6)"><tspan x="0" y="0">ti</tspan></text>
</svg>