<?xml version="1.0" encoding="utf-8"?>
<!-- Generator: Adobe Illustrator 28.3.0, SVG Export Plug-In . SVG Version: 6.00 Build 0)  -->
<svg version="1.1" id="Camada_1" xmlns="http://www.w3.org/2000/svg" xmlns:xlink="http://www.w3.org/1999/xlink" x="0px" y="0px"
	 viewBox="0 0 192 192" style="enable-background:new 0 0 192 192;" xml:space="preserve">
<style type="text/css">
	.st0{fill:#498093;}
	.st1{opacity:0.7;fill:#73B8CB;}
	.st2{opacity:0.9;fill:#2DAACA;}
	.st3{fill:#FFFFFF;}
	.st4{font-family:'Calibri';}
	.st5{font-size:155.4633px;}
</style>
<g>
	<path class="st0" d="M-36.91-130.57l-27.4-55.52c-9.13-40.63-66.13-44.4-98.79-8.67l-38.83,49.61
		c-37.79,39.68,1.27,95.11,40.32,93.22l76.15-4.88C-49.43-54.49-23.9-112.7-36.91-130.57z"/>
	<path class="st1" d="M-44.68-118.67l-5.45-50.34c-4.08-42.37-48.06-62.95-83.38-45.34l-58.32,36.19
		c-32.39,17.06-45.23,79.72,1.89,102l57.66,26.36C-101.2-30.06-34.17-41.02-44.68-118.67z"/>
	<path class="st2" d="M-59.56-79.15l22.95-38.77c22.85-51.71-30.97-102.01-72.1-95.24l-40.33,1.89
		c-53.63,0.28-78.51,76.17-54.24,103.36l31.79,42.76C-124.06-27.11-91.06-32.32-59.56-79.15z"/>
	<text transform="matrix(1.0013 0 0 1 -168.8599 -83.3996)" class="st3" style="font-family:'Bauhaus93'; font-size:139.0521px;">ti</text>
</g>
<g>
	<path class="st0" d="M186.18-130.81L158.45-187c-9.24-41.12-66.94-44.95-100-8.78l-39.3,50.22c-38.25,40.16,1.28,96.27,40.81,94.36
		l77.08-4.94C173.5-53.8,199.35-112.73,186.18-130.81z"/>
	<path class="st1" d="M178.32-118.76l-5.52-50.96c-4.13-42.89-48.64-63.71-84.4-45.9l-59.03,36.63
		c-32.78,17.27-45.78,80.7,1.91,103.25l58.36,26.68C121.1-29.08,188.95-40.17,178.32-118.76z"/>
	<path class="st2" d="M163.25-78.76l23.23-39.25c23.13-52.34-31.35-103.25-72.98-96.4l-40.82,1.92
		c-54.29,0.29-79.47,77.1-54.9,104.62l32.18,43.29C97.96-26.09,131.37-31.37,163.25-78.76z"/>
	
		<text transform="matrix(1.01 0 0 1.04 51.9121 -83.0684)" class="st3" style="font-family:'ArialRoundedMTBold'; font-size:142.8086px;">ti</text>
</g>
<g>
	<path class="st0" d="M-35.82,93.74l-27.73-56.19c-9.24-41.12-66.94-44.95-100-8.78l-39.3,50.22
		c-38.25,40.16,1.28,96.27,40.81,94.36l77.08-4.94C-48.5,170.75-22.65,111.82-35.82,93.74z"/>
	<path class="st1" d="M-43.68,105.79l-5.52-50.96c-4.13-42.89-48.64-63.71-84.4-45.9l-59.03,36.63
		c-32.78,17.27-45.78,80.7,1.91,103.25l58.36,26.68C-100.9,195.47-33.05,184.38-43.68,105.79z"/>
	<path class="st2" d="M-58.75,145.79l23.23-39.25C-12.39,54.2-66.87,3.29-108.5,10.13l-40.82,1.92
		c-54.29,0.29-79.47,77.1-54.9,104.62l32.18,43.29C-124.04,198.46-90.63,193.19-58.75,145.79z"/>
	
		<text transform="matrix(1.01 0 0 1.09 -154.2305 146.2656)" class="st3" style="font-family:'Swiss721BT-BoldCondensed'; font-size:133.883px; letter-spacing:-3.96;">ti</text>
</g>
<path class="st0" d="M183.89,93.09l-26.84-54.38c-8.95-39.79-64.78-43.49-96.76-8.49L22.26,78.81
	c-37.02,38.87,1.24,93.15,39.49,91.3l74.59-4.78C171.62,167.6,196.63,110.59,183.89,93.09z"/>
<path class="st1" d="M176.28,104.74l-5.34-49.31c-4-41.5-47.07-61.65-81.67-44.41L32.15,46.46C0.42,63.17-12.15,124.55,34,146.37
	l56.47,25.82C120.92,191.53,186.57,180.8,176.28,104.74z"/>
<path class="st2" d="M161.71,143.45l22.48-37.98c22.38-50.65-30.34-99.91-70.62-93.29l-39.5,1.85
	c-52.53,0.28-76.9,74.61-53.13,101.24l31.14,41.89C98.52,194.42,130.85,189.31,161.71,143.45z"/>
<text transform="matrix(1.01 0 0 1.07 56.9207 145.8978)" class="st3 st4 st5">ti</text>
</svg>
